<?xml version="1.0" encoding="UTF-8" standalone="no"?>
<svg
   xmlns:dc="http://purl.org/dc/elements/1.1/"
   xmlns:cc="http://creativecommons.org/ns#"
   xmlns:rdf="http://www.w3.org/1999/02/22-rdf-syntax-ns#"
   xmlns:svg="http://www.w3.org/2000/svg"
   xmlns="http://www.w3.org/2000/svg"
   xmlns:sodipodi="http://sodipodi.sourceforge.net/DTD/sodipodi-0.dtd"
   xmlns:inkscape="http://www.inkscape.org/namespaces/inkscape"
   height="1000"
   width="928.57098"
   id="svg2"
   version="1.1"
   inkscape:version="0.91 r13725"
   sodipodi:docname="rocket_outline.svg">
  <metadata
     id="metadata10">
    <rdf:RDF>
      <cc:Work
         rdf:about="">
        <dc:format>image/svg+xml</dc:format>
        <dc:type
           rdf:resource="http://purl.org/dc/dcmitype/StillImage" />
        <dc:title></dc:title>
      </cc:Work>
    </rdf:RDF>
  </metadata>
  <defs
     id="defs8" />
  <sodipodi:namedview
     pagecolor="#ffffff"
     bordercolor="#666666"
     borderopacity="1"
     objecttolerance="10"
     gridtolerance="10"
     guidetolerance="10"
     inkscape:pageopacity="0"
     inkscape:pageshadow="2"
     inkscape:window-width="1192"
     inkscape:window-height="732"
     id="namedview6"
     showgrid="false"
     inkscape:zoom="0.236"
     inkscape:cx="-162.83315"
     inkscape:cy="500"
     inkscape:window-x="2429"
     inkscape:window-y="171"
     inkscape:window-maximized="0"
     inkscape:current-layer="svg2" />
  <path
     d="m 803.52,250.048 q 0,-22.32 -15.624,-37.944 -15.624,-15.624 -37.944,-15.624 -22.32,0 -37.944,15.624 -15.624,15.624 -15.624,37.944 0,22.32 15.624,37.944 15.624,15.624 37.944,15.624 22.32,0 37.944,-15.624 15.624,-15.624 15.624,-37.944 z M 928.512,89.344 q 0,138.942 -42.129,240.219 -42.129,101.277 -141.453,201.159 -45.198,44.64 -108.81,98.208 l -11.16,211.482 q -1.116,8.928 -8.928,14.508 L 401.76,979.912 q -3.906,2.232 -8.928,2.232 -6.696,0 -12.834,-5.022 L 344.286,941.41 q -7.254,-7.812 -4.464,-17.856 L 387.252,769.546 230.454,612.748 76.446,660.178 q -1.674,0.558 -5.022,0.558 -7.812,0 -12.834,-5.022 L 22.878,620.002 Q 13.392,609.4 20.088,598.24 L 145.08,383.968 q 5.58,-7.812 14.508,-8.928 L 371.07,363.88 q 53.568,-63.612 98.208,-108.81 104.904,-104.346 199.764,-143.964 94.86,-39.618 240.498,-39.618 7.812,0 13.392,5.301 5.58,5.301 5.58,12.555 z"
     id="path4"
     style="fill:none;fill-opacity:1;stroke:#000000;stroke-width:10;stroke-miterlimit:4;stroke-dasharray:none;stroke-opacity:1"
     inkscape:connector-curvature="0" />
</svg>
